# xmcd
#
# Track frame offsets:
#	150
#	22958
#	42479
#	74352
#	107397
#	145853
#	172446
#	207679
#	235711
#	265339
#
# Disc length: 3947 seconds
#
# Revision: 1
# Processed by: cddbd v1.5.2PL0 Copyright (c) Steve Scherf et al.
# Submitted via: audiograbber 1.83.01
#
DISCID=940f690a
DTITLE=Grateful Dead - 80-12-26 Oakland Auditorium Arena, Oakland CA
DYEAR=1900
DGENRE=
TTITLE0=Alabama Getaway
TTITLE1=Promised Land
TTITLE2=They Love Each Other
TTITLE3=CC Rider
TTITLE4=Althea
TTITLE5=Cassidy
TTITLE6=Peggy-O
TTITLE7=Lost Sailor
TTITLE8=Saint Of Circumstance
TTITLE9=Deal
EXTD=
EXTT0=
EXTT1=
EXTT2=
EXTT3=
EXTT4=
EXTT5=
EXTT6=
EXTT7=
EXTT8=
EXTT9=
PLAYORDER=
